<svg xmlns="http://www.w3.org/2000/svg" viewBox="0 0 400 500" preserveAspectRatio="xMidYMid slice"><defs><radialGradient id="bg" cx="50%" cy="40%" r="75%"><stop offset="0%" stop-color="#141318"/><stop offset="55%" stop-color="#0a090c"/><stop offset="100%" stop-color="#060507"/></radialGradient><radialGradient id="core"><stop offset="0%" stop-color="#ffffff"/><stop offset="40%" stop-color="rgba(255,255,255,0.8)"/><stop offset="100%" stop-color="rgba(255,255,255,0)"/></radialGradient><filter id="g" x="-50%" y="-50%" width="200%" height="200%"><feGaussianBlur stdDeviation="1.6"/></filter></defs><rect width="400" height="500" fill="url(#bg)"/><path d="M 200 200 C 202 280 196 380 188 500" stroke="rgba(255,255,255,0.18)" stroke-width="2" fill="none" stroke-linecap="round"/><g filter="url(#g)"><line x1="200" y1="200" x2="278" y2="200" stroke="rgba(255,255,255,0.13)" stroke-width="0.5"/><circle cx="278" cy="200" r="0.9" fill="#ffffff" opacity="0.28"/><line x1="200" y1="200" x2="297.8" y2="209" stroke="rgba(255,255,255,0.13)" stroke-width="0.5"/><circle cx="297.8" cy="209" r="0.9" fill="#ffffff" opacity="0.31"/><line x1="200" y1="200" x2="305" y2="209.9" stroke="rgba(255,255,255,0.13)" stroke-width="0.5"/><circle cx="305" cy="209.9" r="0.9" fill="#ffffff" opacity="0.34"/><line x1="200" y1="200" x2="295.7" y2="211.5" stroke="rgba(255,255,255,0.13)" stroke-width="0.5"/><circle cx="295.7" cy="211.5" r="0.9" fill="#ffffff" opacity="0.37"/><line x1="200" y1="200" x2="278.2" y2="218.2" stroke="rgba(255,255,255,0.13)" stroke-width="0.5"/><circle cx="278.2" cy="218.2" r="0.9" fill="#ffffff" opacity="0.4"/><line x1="200" y1="200" x2="268.4" y2="220.7" stroke="rgba(255,255,255,0.13)" stroke-width="0.5"/><circle cx="268.4" cy="220.7" r="0.9" fill="#ffffff" opacity="0.43"/><line x1="200" y1="200" x2="259.5" y2="217.5" stroke="rgba(255,255,255,0.13)" stroke-width="0.5"/><circle cx="259.5" cy="217.5" r="0.9" fill="#ffffff" opacity="0.46"/><line x1="200" y1="200" x2="277.6" y2="227.6" stroke="rgba(255,255,255,0.13)" stroke-width="0.5"/><circle cx="277.6" cy="227.6" r="0.9" fill="#ffffff" opacity="0.49"/><line x1="200" y1="200" x2="292.1" y2="244.9" stroke="rgba(255,255,255,0.13)" stroke-width="0.5"/><circle cx="292.1" cy="244.9" r="0.9" fill="#ffffff" opacity="0.52"/><line x1="200" y1="200" x2="296.6" y2="251.2" stroke="rgba(255,255,255,0.13)" stroke-width="0.5"/><circle cx="296.6" cy="251.2" r="0.9" fill="#ffffff" opacity="0.55"/><line x1="200" y1="200" x2="288.5" y2="246.7" stroke="rgba(255,255,255,0.13)" stroke-width="0.5"/><circle cx="288.5" cy="246.7" r="0.9" fill="#ffffff" opacity="0.58"/><line x1="200" y1="200" x2="270.7" y2="245.3" stroke="rgba(255,255,255,0.13)" stroke-width="0.5"/><circle cx="270.7" cy="245.3" r="0.9" fill="#ffffff" opacity="0.61"/><line x1="200" y1="200" x2="245.9" y2="236.2" stroke="rgba(255,255,255,0.13)" stroke-width="0.5"/><circle cx="245.9" cy="236.2" r="0.9" fill="#ffffff" opacity="0.64"/><line x1="200" y1="200" x2="251.7" y2="241.5" stroke="rgba(255,255,255,0.13)" stroke-width="0.5"/><circle cx="251.7" cy="241.5" r="0.9" fill="#ffffff" opacity="0.67"/><line x1="200" y1="200" x2="266.7" y2="255.5" stroke="rgba(255,255,255,0.13)" stroke-width="0.5"/><circle cx="266.7" cy="255.5" r="0.9" fill="#ffffff" opacity="0.7"/><line x1="200" y1="200" x2="274.3" y2="276.5" stroke="rgba(255,255,255,0.13)" stroke-width="0.5"/><circle cx="274.3" cy="276.5" r="0.9" fill="#ffffff" opacity="0.73"/><line x1="200" y1="200" x2="272.8" y2="286.8" stroke="rgba(255,255,255,0.13)" stroke-width="0.5"/><circle cx="272.8" cy="286.8" r="0.9" fill="#ffffff" opacity="0.76"/><line x1="200" y1="200" x2="256.1" y2="266.1" stroke="rgba(255,255,255,0.13)" stroke-width="0.5"/><circle cx="256.1" cy="266.1" r="0.9" fill="#ffffff" opacity="0.29"/><line x1="200" y1="200" x2="243.1" y2="255.9" stroke="rgba(255,255,255,0.13)" stroke-width="0.5"/><circle cx="243.1" cy="255.9" r="0.9" fill="#ffffff" opacity="0.32"/><line x1="200" y1="200" x2="232.3" y2="253.3" stroke="rgba(255,255,255,0.13)" stroke-width="0.5"/><circle cx="232.3" cy="253.3" r="0.9" fill="#ffffff" opacity="0.35"/><line x1="200" y1="200" x2="233.9" y2="261.8" stroke="rgba(255,255,255,0.13)" stroke-width="0.5"/><circle cx="233.9" cy="261.8" r="0.9" fill="#ffffff" opacity="0.38"/><line x1="200" y1="200" x2="244.3" y2="279.6" stroke="rgba(255,255,255,0.13)" stroke-width="0.5"/><circle cx="244.3" cy="279.6" r="0.9" fill="#ffffff" opacity="0.41"/><line x1="200" y1="200" x2="246.3" y2="300.8" stroke="rgba(255,255,255,0.13)" stroke-width="0.5"/><circle cx="246.3" cy="300.8" r="0.9" fill="#ffffff" opacity="0.44"/><line x1="200" y1="200" x2="232.2" y2="294.8" stroke="rgba(255,255,255,0.13)" stroke-width="0.5"/><circle cx="232.2" cy="294.8" r="0.9" fill="#ffffff" opacity="0.47"/><line x1="200" y1="200" x2="227.8" y2="286" stroke="rgba(255,255,255,0.13)" stroke-width="0.5"/><circle cx="227.8" cy="286" r="0.9" fill="#ffffff" opacity="0.5"/><line x1="200" y1="200" x2="222.1" y2="270.9" stroke="rgba(255,255,255,0.13)" stroke-width="0.5"/><circle cx="222.1" cy="270.9" r="0.9" fill="#ffffff" opacity="0.53"/><line x1="200" y1="200" x2="213.2" y2="265" stroke="rgba(255,255,255,0.13)" stroke-width="0.5"/><circle cx="213.2" cy="265" r="0.9" fill="#ffffff" opacity="0.56"/><line x1="200" y1="200" x2="208.9" y2="274.2" stroke="rgba(255,255,255,0.13)" stroke-width="0.5"/><circle cx="208.9" cy="274.2" r="0.9" fill="#ffffff" opacity="0.59"/><line x1="200" y1="200" x2="211.7" y2="294.8" stroke="rgba(255,255,255,0.13)" stroke-width="0.5"/><circle cx="211.7" cy="294.8" r="0.9" fill="#ffffff" opacity="0.62"/><line x1="200" y1="200" x2="208.4" y2="297.8" stroke="rgba(255,255,255,0.13)" stroke-width="0.5"/><circle cx="208.4" cy="297.8" r="0.9" fill="#ffffff" opacity="0.65"/><line x1="200" y1="200" x2="197.2" y2="304" stroke="rgba(255,255,255,0.13)" stroke-width="0.5"/><circle cx="197.2" cy="304" r="0.9" fill="#ffffff" opacity="0.68"/><line x1="200" y1="200" x2="192.6" y2="293.8" stroke="rgba(255,255,255,0.13)" stroke-width="0.5"/><circle cx="192.6" cy="293.8" r="0.9" fill="#ffffff" opacity="0.71"/><line x1="200" y1="200" x2="194.5" y2="277.8" stroke="rgba(255,255,255,0.13)" stroke-width="0.5"/><circle cx="194.5" cy="277.8" r="0.9" fill="#ffffff" opacity="0.74"/><line x1="200" y1="200" x2="190.2" y2="269.5" stroke="rgba(255,255,255,0.13)" stroke-width="0.5"/><circle cx="190.2" cy="269.5" r="0.9" fill="#ffffff" opacity="0.77"/><line x1="200" y1="200" x2="184.8" y2="260.1" stroke="rgba(255,255,255,0.13)" stroke-width="0.5"/><circle cx="184.8" cy="260.1" r="0.9" fill="#ffffff" opacity="0.3"/><line x1="200" y1="200" x2="178" y2="279.9" stroke="rgba(255,255,255,0.13)" stroke-width="0.5"/><circle cx="178" cy="279.9" r="0.9" fill="#ffffff" opacity="0.33"/><line x1="200" y1="200" x2="172.3" y2="298.5" stroke="rgba(255,255,255,0.13)" stroke-width="0.5"/><circle cx="172.3" cy="298.5" r="0.9" fill="#ffffff" opacity="0.36"/><line x1="200" y1="200" x2="161" y2="300.7" stroke="rgba(255,255,255,0.13)" stroke-width="0.5"/><circle cx="161" cy="300.7" r="0.9" fill="#ffffff" opacity="0.39"/><line x1="200" y1="200" x2="156.8" y2="287.6" stroke="rgba(255,255,255,0.13)" stroke-width="0.5"/><circle cx="156.8" cy="287.6" r="0.9" fill="#ffffff" opacity="0.42"/><line x1="200" y1="200" x2="163.9" y2="273.2" stroke="rgba(255,255,255,0.13)" stroke-width="0.5"/><circle cx="163.9" cy="273.2" r="0.9" fill="#ffffff" opacity="0.45"/><line x1="200" y1="200" x2="173.2" y2="250.5" stroke="rgba(255,255,255,0.13)" stroke-width="0.5"/><circle cx="173.2" cy="250.5" r="0.9" fill="#ffffff" opacity="0.48"/><line x1="200" y1="200" x2="162.7" y2="254.7" stroke="rgba(255,255,255,0.13)" stroke-width="0.5"/><circle cx="162.7" cy="254.7" r="0.9" fill="#ffffff" opacity="0.51"/><line x1="200" y1="200" x2="146.6" y2="269" stroke="rgba(255,255,255,0.13)" stroke-width="0.5"/><circle cx="146.6" cy="269" r="0.9" fill="#ffffff" opacity="0.54"/><line x1="200" y1="200" x2="135.5" y2="284.7" stroke="rgba(255,255,255,0.13)" stroke-width="0.5"/><circle cx="135.5" cy="284.7" r="0.9" fill="#ffffff" opacity="0.57"/><line x1="200" y1="200" x2="127.1" y2="284.8" stroke="rgba(255,255,255,0.13)" stroke-width="0.5"/><circle cx="127.1" cy="284.8" r="0.9" fill="#ffffff" opacity="0.6"/><line x1="200" y1="200" x2="125.8" y2="269.1" stroke="rgba(255,255,255,0.13)" stroke-width="0.5"/><circle cx="125.8" cy="269.1" r="0.9" fill="#ffffff" opacity="0.63"/><line x1="200" y1="200" x2="148.6" y2="245" stroke="rgba(255,255,255,0.13)" stroke-width="0.5"/><circle cx="148.6" cy="245" r="0.9" fill="#ffffff" opacity="0.66"/><line x1="200" y1="200" x2="154" y2="240.3" stroke="rgba(255,255,255,0.13)" stroke-width="0.5"/><circle cx="154" cy="240.3" r="0.9" fill="#ffffff" opacity="0.69"/><line x1="200" y1="200" x2="143.1" y2="241.6" stroke="rgba(255,255,255,0.13)" stroke-width="0.5"/><circle cx="143.1" cy="241.6" r="0.9" fill="#ffffff" opacity="0.72"/><line x1="200" y1="200" x2="121.3" y2="246.8" stroke="rgba(255,255,255,0.13)" stroke-width="0.5"/><circle cx="121.3" cy="246.8" r="0.9" fill="#ffffff" opacity="0.75"/><line x1="200" y1="200" x2="104.5" y2="256" stroke="rgba(255,255,255,0.13)" stroke-width="0.5"/><circle cx="104.5" cy="256" r="0.9" fill="#ffffff" opacity="0.28"/><line x1="200" y1="200" x2="113.8" y2="248.1" stroke="rgba(255,255,255,0.13)" stroke-width="0.5"/><circle cx="113.8" cy="248.1" r="0.9" fill="#ffffff" opacity="0.31"/><line x1="200" y1="200" x2="119" y2="234.4" stroke="rgba(255,255,255,0.13)" stroke-width="0.5"/><circle cx="119" cy="234.4" r="0.9" fill="#ffffff" opacity="0.34"/><line x1="200" y1="200" x2="131.9" y2="223.5" stroke="rgba(255,255,255,0.13)" stroke-width="0.5"/><circle cx="131.9" cy="223.5" r="0.9" fill="#ffffff" opacity="0.37"/><line x1="200" y1="200" x2="138.6" y2="221.7" stroke="rgba(255,255,255,0.13)" stroke-width="0.5"/><circle cx="138.6" cy="221.7" r="0.9" fill="#ffffff" opacity="0.4"/><line x1="200" y1="200" x2="128.3" y2="221.3" stroke="rgba(255,255,255,0.13)" stroke-width="0.5"/><circle cx="128.3" cy="221.3" r="0.9" fill="#ffffff" opacity="0.43"/><line x1="200" y1="200" x2="105.5" y2="216.9" stroke="rgba(255,255,255,0.13)" stroke-width="0.5"/><circle cx="105.5" cy="216.9" r="0.9" fill="#ffffff" opacity="0.46"/><line x1="200" y1="200" x2="103" y2="213.5" stroke="rgba(255,255,255,0.13)" stroke-width="0.5"/><circle cx="103" cy="213.5" r="0.9" fill="#ffffff" opacity="0.49"/><line x1="200" y1="200" x2="98.5" y2="214.5" stroke="rgba(255,255,255,0.13)" stroke-width="0.5"/><circle cx="98.5" cy="214.5" r="0.9" fill="#ffffff" opacity="0.52"/><line x1="200" y1="200" x2="108.5" y2="205.6" stroke="rgba(255,255,255,0.13)" stroke-width="0.5"/><circle cx="108.5" cy="205.6" r="0.9" fill="#ffffff" opacity="0.55"/><line x1="200" y1="200" x2="124.4" y2="197" stroke="rgba(255,255,255,0.13)" stroke-width="0.5"/><circle cx="124.4" cy="197" r="0.9" fill="#ffffff" opacity="0.58"/><line x1="200" y1="200" x2="131" y2="196.5" stroke="rgba(255,255,255,0.13)" stroke-width="0.5"/><circle cx="131" cy="196.5" r="0.9" fill="#ffffff" opacity="0.61"/><line x1="200" y1="200" x2="121.1" y2="194.9" stroke="rgba(255,255,255,0.13)" stroke-width="0.5"/><circle cx="121.1" cy="194.9" r="0.9" fill="#ffffff" opacity="0.64"/><line x1="200" y1="200" x2="117.9" y2="186" stroke="rgba(255,255,255,0.13)" stroke-width="0.5"/><circle cx="117.9" cy="186" r="0.9" fill="#ffffff" opacity="0.67"/><line x1="200" y1="200" x2="101" y2="175.1" stroke="rgba(255,255,255,0.13)" stroke-width="0.5"/><circle cx="101" cy="175.1" r="0.9" fill="#ffffff" opacity="0.7"/><line x1="200" y1="200" x2="96.7" y2="174.6" stroke="rgba(255,255,255,0.13)" stroke-width="0.5"/><circle cx="96.7" cy="174.6" r="0.9" fill="#ffffff" opacity="0.73"/><line x1="200" y1="200" x2="108.5" y2="173.4" stroke="rgba(255,255,255,0.13)" stroke-width="0.5"/><circle cx="108.5" cy="173.4" r="0.9" fill="#ffffff" opacity="0.76"/><line x1="200" y1="200" x2="126.7" y2="169.4" stroke="rgba(255,255,255,0.13)" stroke-width="0.5"/><circle cx="126.7" cy="169.4" r="0.9" fill="#ffffff" opacity="0.29"/><line x1="200" y1="200" x2="149.4" y2="176" stroke="rgba(255,255,255,0.13)" stroke-width="0.5"/><circle cx="149.4" cy="176" r="0.9" fill="#ffffff" opacity="0.32"/><line x1="200" y1="200" x2="139.9" y2="172" stroke="rgba(255,255,255,0.13)" stroke-width="0.5"/><circle cx="139.9" cy="172" r="0.9" fill="#ffffff" opacity="0.35"/><line x1="200" y1="200" x2="123.4" y2="157.3" stroke="rgba(255,255,255,0.13)" stroke-width="0.5"/><circle cx="123.4" cy="157.3" r="0.9" fill="#ffffff" opacity="0.38"/><line x1="200" y1="200" x2="113.2" y2="138.7" stroke="rgba(255,255,255,0.13)" stroke-width="0.5"/><circle cx="113.2" cy="138.7" r="0.9" fill="#ffffff" opacity="0.41"/><line x1="200" y1="200" x2="111.1" y2="134.7" stroke="rgba(255,255,255,0.13)" stroke-width="0.5"/><circle cx="111.1" cy="134.7" r="0.9" fill="#ffffff" opacity="0.44"/><line x1="200" y1="200" x2="120.7" y2="140.9" stroke="rgba(255,255,255,0.13)" stroke-width="0.5"/><circle cx="120.7" cy="140.9" r="0.9" fill="#ffffff" opacity="0.47"/><line x1="200" y1="200" x2="151.1" y2="155.5" stroke="rgba(255,255,255,0.13)" stroke-width="0.5"/><circle cx="151.1" cy="155.5" r="0.9" fill="#ffffff" opacity="0.5"/><line x1="200" y1="200" x2="159.2" y2="156" stroke="rgba(255,255,255,0.13)" stroke-width="0.5"/><circle cx="159.2" cy="156" r="0.9" fill="#ffffff" opacity="0.53"/><line x1="200" y1="200" x2="152" y2="148.3" stroke="rgba(255,255,255,0.13)" stroke-width="0.5"/><circle cx="152" cy="148.3" r="0.9" fill="#ffffff" opacity="0.56"/><line x1="200" y1="200" x2="139.6" y2="130.5" stroke="rgba(255,255,255,0.13)" stroke-width="0.5"/><circle cx="139.6" cy="130.5" r="0.9" fill="#ffffff" opacity="0.59"/><line x1="200" y1="200" x2="137.3" y2="109.1" stroke="rgba(255,255,255,0.13)" stroke-width="0.5"/><circle cx="137.3" cy="109.1" r="0.9" fill="#ffffff" opacity="0.62"/><line x1="200" y1="200" x2="140.6" y2="102.5" stroke="rgba(255,255,255,0.13)" stroke-width="0.5"/><circle cx="140.6" cy="102.5" r="0.9" fill="#ffffff" opacity="0.65"/><line x1="200" y1="200" x2="154.9" y2="127.3" stroke="rgba(255,255,255,0.13)" stroke-width="0.5"/><circle cx="154.9" cy="127.3" r="0.9" fill="#ffffff" opacity="0.68"/><line x1="200" y1="200" x2="167.1" y2="138.5" stroke="rgba(255,255,255,0.13)" stroke-width="0.5"/><circle cx="167.1" cy="138.5" r="0.9" fill="#ffffff" opacity="0.71"/><line x1="200" y1="200" x2="176.1" y2="140.6" stroke="rgba(255,255,255,0.13)" stroke-width="0.5"/><circle cx="176.1" cy="140.6" r="0.9" fill="#ffffff" opacity="0.74"/><line x1="200" y1="200" x2="173.9" y2="129.8" stroke="rgba(255,255,255,0.13)" stroke-width="0.5"/><circle cx="173.9" cy="129.8" r="0.9" fill="#ffffff" opacity="0.77"/><line x1="200" y1="200" x2="166.6" y2="109.6" stroke="rgba(255,255,255,0.13)" stroke-width="0.5"/><circle cx="166.6" cy="109.6" r="0.9" fill="#ffffff" opacity="0.3"/><line x1="200" y1="200" x2="174.7" y2="105.7" stroke="rgba(255,255,255,0.13)" stroke-width="0.5"/><circle cx="174.7" cy="105.7" r="0.9" fill="#ffffff" opacity="0.33"/><line x1="200" y1="200" x2="182.9" y2="100.5" stroke="rgba(255,255,255,0.13)" stroke-width="0.5"/><circle cx="182.9" cy="100.5" r="0.9" fill="#ffffff" opacity="0.36"/><line x1="200" y1="200" x2="185.2" y2="112" stroke="rgba(255,255,255,0.13)" stroke-width="0.5"/><circle cx="185.2" cy="112" r="0.9" fill="#ffffff" opacity="0.39"/><line x1="200" y1="200" x2="189.6" y2="127.2" stroke="rgba(255,255,255,0.13)" stroke-width="0.5"/><circle cx="189.6" cy="127.2" r="0.9" fill="#ffffff" opacity="0.42"/><line x1="200" y1="200" x2="197.8" y2="132" stroke="rgba(255,255,255,0.13)" stroke-width="0.5"/><circle cx="197.8" cy="132" r="0.9" fill="#ffffff" opacity="0.45"/><line x1="200" y1="200" x2="202.6" y2="120.9" stroke="rgba(255,255,255,0.13)" stroke-width="0.5"/><circle cx="202.6" cy="120.9" r="0.9" fill="#ffffff" opacity="0.48"/><line x1="200" y1="200" x2="202.1" y2="116.3" stroke="rgba(255,255,255,0.13)" stroke-width="0.5"/><circle cx="202.1" cy="116.3" r="0.9" fill="#ffffff" opacity="0.51"/><line x1="200" y1="200" x2="208.1" y2="98.5" stroke="rgba(255,255,255,0.13)" stroke-width="0.5"/><circle cx="208.1" cy="98.5" r="0.9" fill="#ffffff" opacity="0.54"/><line x1="200" y1="200" x2="219.9" y2="97.1" stroke="rgba(255,255,255,0.13)" stroke-width="0.5"/><circle cx="219.9" cy="97.1" r="0.9" fill="#ffffff" opacity="0.57"/><line x1="200" y1="200" x2="220.8" y2="109.5" stroke="rgba(255,255,255,0.13)" stroke-width="0.5"/><circle cx="220.8" cy="109.5" r="0.9" fill="#ffffff" opacity="0.6"/><line x1="200" y1="200" x2="217.1" y2="124.7" stroke="rgba(255,255,255,0.13)" stroke-width="0.5"/><circle cx="217.1" cy="124.7" r="0.9" fill="#ffffff" opacity="0.63"/><line x1="200" y1="200" x2="221.8" y2="131.4" stroke="rgba(255,255,255,0.13)" stroke-width="0.5"/><circle cx="221.8" cy="131.4" r="0.9" fill="#ffffff" opacity="0.66"/><line x1="200" y1="200" x2="226.3" y2="139" stroke="rgba(255,255,255,0.13)" stroke-width="0.5"/><circle cx="226.3" cy="139" r="0.9" fill="#ffffff" opacity="0.69"/><line x1="200" y1="200" x2="235.5" y2="119.4" stroke="rgba(255,255,255,0.13)" stroke-width="0.5"/><circle cx="235.5" cy="119.4" r="0.9" fill="#ffffff" opacity="0.72"/><line x1="200" y1="200" x2="244.4" y2="103.8" stroke="rgba(255,255,255,0.13)" stroke-width="0.5"/><circle cx="244.4" cy="103.8" r="0.9" fill="#ffffff" opacity="0.75"/><line x1="200" y1="200" x2="255.6" y2="106.7" stroke="rgba(255,255,255,0.13)" stroke-width="0.5"/><circle cx="255.6" cy="106.7" r="0.9" fill="#ffffff" opacity="0.28"/><line x1="200" y1="200" x2="255.4" y2="121" stroke="rgba(255,255,255,0.13)" stroke-width="0.5"/><circle cx="255.4" cy="121" r="0.9" fill="#ffffff" opacity="0.31"/><line x1="200" y1="200" x2="236.4" y2="147.4" stroke="rgba(255,255,255,0.13)" stroke-width="0.5"/><circle cx="236.4" cy="147.4" r="0.9" fill="#ffffff" opacity="0.34"/><line x1="200" y1="200" x2="235.8" y2="153.1" stroke="rgba(255,255,255,0.13)" stroke-width="0.5"/><circle cx="235.8" cy="153.1" r="0.9" fill="#ffffff" opacity="0.37"/><line x1="200" y1="200" x2="248.9" y2="148.9" stroke="rgba(255,255,255,0.13)" stroke-width="0.5"/><circle cx="248.9" cy="148.9" r="0.9" fill="#ffffff" opacity="0.4"/><line x1="200" y1="200" x2="266.8" y2="136" stroke="rgba(255,255,255,0.13)" stroke-width="0.5"/><circle cx="266.8" cy="136" r="0.9" fill="#ffffff" opacity="0.43"/><line x1="200" y1="200" x2="279.1" y2="123.4" stroke="rgba(255,255,255,0.13)" stroke-width="0.5"/><circle cx="279.1" cy="123.4" r="0.9" fill="#ffffff" opacity="0.46"/><line x1="200" y1="200" x2="286.6" y2="128.1" stroke="rgba(255,255,255,0.13)" stroke-width="0.5"/><circle cx="286.6" cy="128.1" r="0.9" fill="#ffffff" opacity="0.49"/><line x1="200" y1="200" x2="269.1" y2="153.8" stroke="rgba(255,255,255,0.13)" stroke-width="0.5"/><circle cx="269.1" cy="153.8" r="0.9" fill="#ffffff" opacity="0.52"/><line x1="200" y1="200" x2="256.8" y2="163.3" stroke="rgba(255,255,255,0.13)" stroke-width="0.5"/><circle cx="256.8" cy="163.3" r="0.9" fill="#ffffff" opacity="0.55"/><line x1="200" y1="200" x2="253.3" y2="166.3" stroke="rgba(255,255,255,0.13)" stroke-width="0.5"/><circle cx="253.3" cy="166.3" r="0.9" fill="#ffffff" opacity="0.58"/><line x1="200" y1="200" x2="267.1" y2="166.5" stroke="rgba(255,255,255,0.13)" stroke-width="0.5"/><circle cx="267.1" cy="166.5" r="0.9" fill="#ffffff" opacity="0.61"/><line x1="200" y1="200" x2="289.9" y2="164" stroke="rgba(255,255,255,0.13)" stroke-width="0.5"/><circle cx="289.9" cy="164" r="0.9" fill="#ffffff" opacity="0.64"/><line x1="200" y1="200" x2="305.9" y2="157.2" stroke="rgba(255,255,255,0.13)" stroke-width="0.5"/><circle cx="305.9" cy="157.2" r="0.9" fill="#ffffff" opacity="0.67"/><line x1="200" y1="200" x2="293.4" y2="166.2" stroke="rgba(255,255,255,0.13)" stroke-width="0.5"/><circle cx="293.4" cy="166.2" r="0.9" fill="#ffffff" opacity="0.7"/><line x1="200" y1="200" x2="284.4" y2="179.8" stroke="rgba(255,255,255,0.13)" stroke-width="0.5"/><circle cx="284.4" cy="179.8" r="0.9" fill="#ffffff" opacity="0.73"/><line x1="200" y1="200" x2="270.2" y2="187" stroke="rgba(255,255,255,0.13)" stroke-width="0.5"/><circle cx="270.2" cy="187" r="0.9" fill="#ffffff" opacity="0.76"/><line x1="200" y1="200" x2="265.8" y2="187.3" stroke="rgba(255,255,255,0.13)" stroke-width="0.5"/><circle cx="265.8" cy="187.3" r="0.9" fill="#ffffff" opacity="0.29"/><line x1="200" y1="200" x2="278.7" y2="190.3" stroke="rgba(255,255,255,0.13)" stroke-width="0.5"/><circle cx="278.7" cy="190.3" r="0.9" fill="#ffffff" opacity="0.32"/><line x1="200" y1="200" x2="284.2" y2="198.8" stroke="rgba(255,255,255,0.13)" stroke-width="0.5"/><circle cx="284.2" cy="198.8" r="0.9" fill="#ffffff" opacity="0.35"/></g><circle cx="200" cy="200" r="16" fill="url(#core)" opacity="0.6"/><circle cx="200" cy="200" r="4.5" fill="#ffffff" filter="url(#g)"/></svg>